<svg width="24" height="24" viewBox="0 0 24 24" fill="none" xmlns="http://www.w3.org/2000/svg">
<g clip-path="url(#clip0_1_727)">
<g clip-path="url(#clip1_1_727)">
<path d="M23.8072 10.141C23.9139 10.141 24.0003 10.2275 24.0003 10.3342V12.3623C24.0003 13.1214 23.9298 13.8636 23.7946 14.5836C22.7485 20.1762 17.8215 24.4027 11.9157 24.362C5.28907 24.3163 -0.0142753 18.962 0.00039658 12.3353C0.0149747 5.7204 5.38207 0.362305 12.0003 0.362305C15.2428 0.362305 18.1848 1.64865 20.3448 3.73815C20.4228 3.81357 20.4248 3.93788 20.348 4.01457L17.4788 6.88384C17.4049 6.95771 17.2856 6.95963 17.2098 6.88759C15.8542 5.59716 14.02 4.80493 12.0003 4.80493C7.82983 4.80493 4.47147 8.13943 4.44316 12.3099C4.41471 16.5076 7.80921 19.9196 12.0003 19.9196C15.4009 19.9196 18.2771 17.6732 19.2255 14.5836H12.1935C12.0868 14.5836 12.0003 14.4971 12.0003 14.3904V10.3341C12.0003 10.2274 12.0868 10.1409 12.1935 10.1409H23.8072V10.141Z" fill="#2196F3"/>
<path d="M23.8066 10.1411H22.3579C22.4646 10.1411 22.5511 10.2276 22.5511 10.3343V12.3624C22.5511 13.1215 22.4806 13.8637 22.3454 14.5837C21.3473 19.9191 16.8171 24.0111 11.2747 24.3408C11.4867 24.3533 11.7002 24.3606 11.9152 24.3621C17.8209 24.4028 22.7479 20.1763 23.794 14.5837C23.9293 13.8637 23.9998 13.1215 23.9998 12.3624V10.3342C23.9998 10.2276 23.9133 10.1411 23.8066 10.1411Z" fill="#1E88E5"/>
<path d="M5.13608 9.1974L1.49164 6.56415C3.53623 2.86613 7.47617 0.362305 12.0005 0.362305C15.2429 0.362305 18.1849 1.64865 20.3449 3.73815C20.4229 3.81357 20.4249 3.93788 20.3481 4.01457L17.4789 6.88384C17.4051 6.95757 17.2858 6.95987 17.2103 6.88796C15.8546 5.5973 14.0202 4.80498 12.0005 4.80498C8.95676 4.80498 6.33317 6.60423 5.13608 9.1974Z" fill="#F44336"/>
<path d="M4.08331 8.43743L5.13542 9.1976C6.22808 6.83069 8.50939 5.12604 11.2136 4.84643C11.234 4.84422 11.2535 4.84155 11.2742 4.83958C11.0362 4.81699 10.7951 4.80518 10.5511 4.80518C7.80158 4.80518 5.40533 6.25469 4.08331 8.43743Z" fill="#E53935"/>
<path d="M18.8958 3.73815C18.9738 3.81357 18.9758 3.93788 18.8991 4.01462L16.5702 6.34351C16.7933 6.5132 17.0069 6.6947 17.2096 6.88763C17.2852 6.95968 17.4046 6.95776 17.4785 6.88388L20.3478 4.01462C20.4245 3.93788 20.4224 3.81362 20.3445 3.73815C18.1845 1.64865 15.2426 0.362305 12.0001 0.362305C11.7568 0.362305 11.5154 0.370414 11.2756 0.384711C14.2306 0.560727 16.8979 1.8054 18.8958 3.73815Z" fill="#E53935"/>
<path d="M20.8023 20.5177C18.6109 22.8824 15.4778 24.3625 11.9995 24.3625C7.30144 24.3625 3.234 21.6626 1.26422 17.7294L4.98492 15.1797C6.10144 17.9578 8.8216 19.9198 11.9995 19.9198C13.9939 19.9198 15.8077 19.1472 17.1578 17.8849L20.8023 20.5177Z" fill="#4CAF50"/>
<path d="M4.98522 15.1797L3.88806 15.9315C5.16236 18.3055 7.66825 19.9198 10.5511 19.9198C10.7949 19.9198 11.0359 19.9078 11.2738 19.8853C8.41211 19.6125 6.01562 17.7437 4.98522 15.1797Z" fill="#43A047"/>
<path d="M12.0001 24.3622C15.4784 24.3622 18.6114 22.8822 20.8028 20.5174L19.9102 19.8726C17.8525 22.4333 14.7658 24.1321 11.2775 24.3404C11.5166 24.3547 11.7574 24.3622 12.0001 24.3622Z" fill="#43A047"/>
<path d="M4.44267 12.3621C4.44267 13.3578 4.63533 14.3087 4.98544 15.1794L1.26469 17.729C0.455391 16.1142 0 14.2913 0 12.3621C0 10.2591 0.540844 8.28259 1.49119 6.56396L5.13562 9.19721C4.69088 10.1596 4.44267 11.2322 4.44267 12.3621Z" fill="#FFC107"/>
<path d="M3.8884 15.9312L4.98555 15.1793C4.63545 14.3087 4.44279 13.3578 4.44279 12.3621C4.44279 11.2321 4.69099 10.1596 5.13574 9.19718L4.08363 8.43701C3.40043 9.56506 3.00391 10.8888 2.99426 12.3097C2.98535 13.62 3.31005 14.8538 3.8884 15.9312Z" fill="#FFB300"/>
</g>
</g>
<defs>
<clipPath id="clip0_1_727">
<rect width="24" height="24" fill="white"/>
</clipPath>
<clipPath id="clip1_1_727">
<rect width="24" height="24" fill="white" transform="translate(0 0.362305)"/>
</clipPath>
</defs>
</svg>
